<?xml version="1.0" encoding="utf-8"?>
<!-- Generator: Adobe Illustrator 24.1.3, SVG Export Plug-In . SVG Version: 6.00 Build 0)  -->
<svg version="1.1" id="Layer_1" xmlns="http://www.w3.org/2000/svg" xmlns:xlink="http://www.w3.org/1999/xlink" x="0px" y="0px"
	 viewBox="0 0 70 70" style="enable-background:new 0 0 70 70;" xml:space="preserve">
<path d="M54.6,11.5H15.4c-2.2,0-3.9,1.8-3.9,3.9v31.3c0,2.2,1.8,3.9,3.9,3.9H33v3.9h-5.9c-2.2,0-3.9,1.8-3.9,3.9l23.5,0
	c0-2.2-1.8-3.9-3.9-3.9H37v-3.9h17.6c2.2,0,3.9-1.8,3.9-3.9V15.4C58.5,13.3,56.7,11.5,54.6,11.5z M27.5,35.9l-2.1,2.1l-5.5-5.5
	c-0.8-0.8-0.8-2,0-2.8l5.5-5.5l2.1,2.1l-4.8,4.8L27.5,35.9z M34.5,39.9h-3l3.9-17.6h3L34.5,39.9z M50.1,32.5l-5.5,5.5l-2.1-2.1
	l4.8-4.8l-4.8-4.8l2.1-2.1l5.5,5.5C50.9,30.5,50.9,31.7,50.1,32.5z"/>
</svg>
