<svg width="115" height="40" viewBox="0 0 115 40" fill="none" xmlns="http://www.w3.org/2000/svg">
<path d="M26.9311 38.8584C25.1516 38.8584 23.7446 38.341 22.71 37.3065C21.6755 36.2719 21.1582 34.8649 21.1582 33.0854V0.993237C21.6135 0.910471 22.3376 0.807021 23.3308 0.682871C24.324 0.517337 25.2758 0.43457 26.1862 0.43457C27.138 0.43457 27.9657 0.517337 28.6692 0.682871C29.414 0.807021 30.0348 1.05531 30.5314 1.42777C31.028 1.80019 31.4005 2.31752 31.6487 2.9796C31.897 3.64169 32.0211 4.51077 32.0211 5.58669V30.1059H46.2361C46.5258 30.5611 46.7948 31.1819 47.043 31.9681C47.2914 32.713 47.4155 33.4993 47.4155 34.3269C47.4155 35.9823 47.0637 37.1617 46.3602 37.8652C45.6567 38.5273 44.7256 38.8584 43.5669 38.8584H26.9311Z" fill="white"/>
<path d="M60.6114 26.5055V38.4238C60.1564 38.5479 59.4322 38.6721 58.4389 38.7962C57.4872 38.9204 56.5355 38.9825 55.583 38.9825C54.6314 38.9825 53.7833 38.8996 53.0384 38.7341C52.3349 38.61 51.7349 38.3617 51.2383 37.9892C50.783 37.6168 50.4313 37.0995 50.183 36.4374C49.9347 35.7753 49.8105 34.9062 49.8105 33.8303V4.59347C49.8105 3.72447 50.0382 3.0623 50.4934 2.60713C50.99 2.11055 51.6521 1.71738 52.4797 1.42772C53.8868 0.931108 55.5214 0.579358 57.3839 0.372442C59.2455 0.12415 61.2322 0 63.343 0C69.0539 0 73.3572 1.20013 76.2539 3.6003C79.1505 6.00047 80.5989 9.24905 80.5989 13.3459C80.5989 15.9116 79.9372 18.1049 78.613 19.9257C77.2889 21.7466 75.7164 23.1536 73.8955 24.1468C75.3847 26.1746 76.8539 28.0781 78.3022 29.8575C79.7505 31.637 80.8889 33.251 81.7164 34.6993C81.303 36.1477 80.5372 37.265 79.4197 38.0513C78.3439 38.7962 77.123 39.1686 75.7572 39.1686C74.8472 39.1686 74.0605 39.0652 73.3989 38.8583C72.7364 38.6514 72.1572 38.3617 71.6605 37.9892C71.1639 37.6168 70.7089 37.1616 70.2947 36.6236C69.8814 36.0856 69.488 35.5063 69.1155 34.8855L63.9014 26.5055H60.6114Z" fill="white"/>
<path d="M64.1138 5.76751C64.2335 5.39896 64.7549 5.39893 64.8747 5.76746L66.2919 10.1285C66.3454 10.2933 66.499 10.4049 66.6723 10.4049H71.2581C71.6456 10.4049 71.8067 10.9007 71.4932 11.1285L67.7834 13.8238C67.6432 13.9256 67.5846 14.1061 67.6381 14.2709L69.0547 18.6322C69.1744 19.0007 68.7527 19.3071 68.4392 19.0794L64.7293 16.384C64.5891 16.2821 64.3992 16.2821 64.2591 16.384L60.5494 19.0792C60.2359 19.307 59.8141 19.0005 59.9338 18.632L61.351 14.271C61.4046 14.1061 61.3459 13.9256 61.2057 13.8237L57.496 11.1285C57.1825 10.9007 57.3436 10.4049 57.7311 10.4049H62.3169C62.4902 10.4049 62.6438 10.2933 62.6973 10.1285L64.1138 5.76751Z" fill="black"/>
<path d="M91.568 33.93L89.8085 33.0233C88.895 32.5526 88.4869 31.4661 88.8647 30.5104L98.8755 5.18077C99.3145 4.07007 100.623 3.58916 101.677 4.15112L103.068 4.89312L91.568 33.93Z" fill="#E84D60"/>
<path d="M112.226 22.7633C112.373 22.6651 112.587 22.5132 112.87 22.3075C113.151 22.1216 113.418 21.912 113.671 21.6788C113.924 21.4456 114.139 21.2198 114.316 21.0015C114.482 20.7937 114.589 20.585 114.637 20.3752C114.686 20.1653 114.675 19.9545 114.607 19.7426C114.516 19.5321 114.347 19.3121 114.098 19.0827L105.437 11.0967C105.29 11.1949 105.082 11.3416 104.81 11.5367C104.518 11.7331 104.245 11.948 103.992 12.1812C103.739 12.4144 103.53 12.6349 103.364 12.8426C103.187 13.061 103.074 13.2751 103.026 13.4849C102.977 13.6947 102.999 13.9048 103.089 14.1153C103.158 14.3272 103.317 14.5479 103.565 14.7774L112.226 22.7633Z" fill="#E84D60"/>
<path d="M112.239 17.7633C112.385 17.8679 112.599 18.0298 112.88 18.2489C113.16 18.4469 113.426 18.6702 113.678 18.9189C113.93 19.1675 114.143 19.4083 114.32 19.6414C114.484 19.863 114.59 20.086 114.638 20.3103C114.685 20.5346 114.674 20.7601 114.605 20.987C114.514 21.2124 114.344 21.4482 114.095 21.6945L105.423 30.2633C105.277 30.1587 105.069 30.0024 104.799 29.7946C104.507 29.5854 104.236 29.3564 103.984 29.1077C103.732 28.8591 103.524 28.6239 103.36 28.4022C103.184 28.1692 103.072 27.9406 103.024 27.7163C102.977 27.492 102.999 27.2672 103.09 27.0418C103.159 26.8149 103.318 26.5784 103.567 26.3321L112.239 17.7633Z" fill="#E84D60"/>
<path d="M2.44074 18.5968C2.29416 18.695 2.07981 18.8469 1.79709 19.0526C1.51556 19.2385 1.24866 19.4481 0.995793 19.6813C0.742628 19.9145 0.527678 20.1403 0.350642 20.3586C0.185249 20.5664 0.0780724 20.7751 0.0297087 20.985C-0.0186559 21.1948 -0.0082075 21.4056 0.060457 21.6175C0.150916 21.828 0.320488 22.048 0.569175 22.2775L9.23022 30.2634C9.3768 30.1652 9.58549 30.0185 9.85686 29.8235C10.1494 29.627 10.4223 29.4121 10.6752 29.1789C10.9283 28.9457 11.1373 28.7252 11.303 28.5175C11.48 28.2991 11.5929 28.085 11.6413 27.8752C11.6896 27.6654 11.6684 27.4553 11.5783 27.2448C11.5093 27.0329 11.3505 26.8122 11.1018 26.5827L2.44074 18.5968Z" fill="#E84D60"/>
<path d="M2.42767 23.5968C2.28182 23.4922 2.06824 23.3303 1.78663 23.1112C1.50651 22.9132 1.24065 22.6899 0.98905 22.4412C0.73715 22.1926 0.523568 21.9518 0.347417 21.7188C0.18285 21.4971 0.0768034 21.2741 0.0292752 21.0498C-0.0182531 20.8255 -0.00726006 20.6 0.0622504 20.3731C0.152851 20.1477 0.32306 19.9119 0.572287 19.6657L9.24412 11.0968C9.38997 11.2014 9.59791 11.3577 9.86793 11.5655C10.1596 11.7747 10.4311 12.0037 10.6827 12.2524C10.9346 12.501 11.1426 12.7362 11.3071 12.9579C11.4833 13.1909 11.595 13.4195 11.6425 13.6438C11.69 13.8681 11.6684 14.0929 11.5775 14.3183C11.5082 14.5452 11.3487 14.7817 11.0995 15.028L2.42767 23.5968Z" fill="#E84D60"/>
</svg>
