<svg width="111" height="111" viewBox="0 0 111 111" fill="none" xmlns="http://www.w3.org/2000/svg">
<circle cx="55.5" cy="55.5" r="55.5" fill="#46C5DD"/>
<path d="M73.3711 53.7129C68.4443 53.7129 64.4355 57.7216 64.4355 62.6484C64.4355 67.5753 68.4443 71.584 73.3711 71.584C78.2979 71.584 82.3066 67.5753 82.3066 62.6484C82.3066 57.7216 78.2979 53.7129 73.3711 53.7129Z" fill="white"/>
<path d="M82.0983 71.584C79.8419 73.788 76.7664 75.1582 73.3711 75.1582C69.9758 75.1582 66.9002 73.788 64.6439 71.584C62.3169 73.8572 60.8613 77.0177 60.8613 80.5195V84.2129C60.8613 85.2007 61.6606 86 62.6484 86H84.2129C85.2007 86 86 85.2007 86 84.2129V80.5195C86 77.0177 84.4253 73.8572 82.0983 71.584Z" fill="white"/>
<path d="M37.6289 25C32.7021 25 28.6934 29.1279 28.6934 34.0547C28.6934 38.9815 32.7021 42.9902 37.6289 42.9902C42.5557 42.9902 46.5645 38.9815 46.5645 34.0547C46.5645 29.1279 42.5557 25 37.6289 25Z" fill="white"/>
<path d="M46.3561 42.9902C44.0997 45.1942 41.0242 46.5645 37.6289 46.5645C34.2336 46.5645 31.158 45.1942 28.9017 42.9902C26.5747 45.2634 25 48.424 25 51.9258V55.5C25 56.4878 25.7993 57.2871 26.7871 57.2871H48.3516C49.3394 57.2871 50.1387 56.4878 50.1387 55.5V51.9258C50.1387 48.424 48.6831 45.2634 46.3561 42.9902Z" fill="white"/>
<path d="M55.5 32.2676C53.6389 32.2676 51.8126 32.539 50.0292 32.9709C50.061 33.3339 50.1387 33.6836 50.1387 34.0547C50.1387 34.9543 50.0335 35.8282 49.8523 36.6745C51.6725 36.1295 53.5711 35.8418 55.5 35.8418C64.5175 35.8418 72.1169 41.9528 74.4235 50.2452C75.7887 50.3612 77.1057 50.6439 78.3116 51.1649C76.2733 40.4217 66.8272 32.2676 55.5 32.2676Z" fill="white"/>
<path d="M55.5 75.1582C46.5208 75.1582 38.9454 69.0999 36.6038 60.8613H32.917C35.347 71.0912 44.5379 78.7324 55.5 78.7324C56.1641 78.7324 56.8204 78.6873 57.475 78.6325C57.6253 77.3572 57.9004 76.1169 58.3439 74.9299C57.4073 75.0655 56.4618 75.1582 55.5 75.1582Z" fill="white"/>
</svg>
