<?xml version="1.0" encoding="utf-8"?>
<!-- Generator: Adobe Illustrator 24.1.3, SVG Export Plug-In . SVG Version: 6.00 Build 0)  -->
<svg version="1.1" id="Layer_1" xmlns="http://www.w3.org/2000/svg" xmlns:xlink="http://www.w3.org/1999/xlink" x="0px" y="0px"
	 viewBox="0 0 442.4 41" style="enable-background:new 0 0 442.4 41;" xml:space="preserve">
<style type="text/css">
	.st0{fill:#356999;}
	.st1{fill:#FFFFFF;}
	.st2{fill:#E84D60;}
</style>
<path d="M138.2,30.4c-1.6,0-3.1-0.3-4.4-1c-1.3-0.7-2.3-1.6-3.1-2.9c-0.7-1.2-1.1-2.6-1.1-4.2c0-1.6,0.4-2.9,1.1-4.2
	c0.7-1.2,1.8-2.2,3.1-2.9c1.3-0.7,2.8-1,4.4-1c1.5,0,2.8,0.3,4,0.8c1.2,0.5,2.1,1.3,2.9,2.3l-3.3,2.9c-1-1.2-2.1-1.8-3.4-1.8
	c-1.1,0-2,0.4-2.6,1.1c-0.7,0.7-1,1.6-1,2.8c0,1.2,0.3,2.1,1,2.8c0.7,0.7,1.5,1,2.6,1c1.3,0,2.4-0.6,3.4-1.8l3.3,2.9
	c-0.8,1-1.7,1.8-2.9,2.3C141,30.1,139.7,30.4,138.2,30.4z M157.7,30.4c-1.7,0-3.1-0.3-4.5-1c-1.3-0.7-2.4-1.6-3.1-2.9
	c-0.7-1.2-1.1-2.6-1.1-4.2c0-1.5,0.4-2.9,1.1-4.1c0.7-1.2,1.8-2.2,3.1-2.9c1.3-0.7,2.8-1,4.5-1c1.7,0,3.1,0.3,4.5,1
	c1.3,0.7,2.4,1.6,3.1,2.9c0.7,1.2,1.1,2.6,1.1,4.1c0,1.5-0.4,2.9-1.1,4.2c-0.7,1.2-1.8,2.2-3.1,2.9C160.8,30,159.3,30.4,157.7,30.4z
	 M157.7,26.1c0.6,0,1.2-0.2,1.7-0.5c0.5-0.3,0.9-0.8,1.3-1.3c0.3-0.6,0.5-1.3,0.5-2s-0.2-1.5-0.5-2c-0.3-0.6-0.7-1-1.3-1.3
	c-0.5-0.3-1.1-0.5-1.7-0.5c-0.6,0-1.2,0.2-1.8,0.5c-0.5,0.3-0.9,0.8-1.2,1.3c-0.3,0.6-0.5,1.2-0.5,2s0.2,1.5,0.5,2
	c0.3,0.6,0.7,1,1.2,1.3C156.4,26,157,26.1,157.7,26.1z M171.5,14.6h7.6c1.7,0,3.2,0.3,4.5,0.9c1.3,0.6,2.3,1.5,3.1,2.7
	c0.7,1.2,1.1,2.5,1.1,4.1c0,1.6-0.4,2.9-1.1,4.1c-0.7,1.2-1.7,2.1-3.1,2.7c-1.3,0.6-2.8,0.9-4.5,0.9h-7.6V14.6z M178.9,26
	c1.1,0,2-0.3,2.7-0.9c0.7-0.6,1-1.5,1-2.7c0-1.2-0.3-2.1-1-2.7c-0.7-0.6-1.5-1-2.7-1h-2.2V26H178.9z M205.8,26.1V30H193V14.6h12.5
	v3.9h-7.4v1.8h6.5v3.7h-6.5v2H205.8z"/>
<path d="M250.2,14.6h5.2V26h7v4h-12.1V14.6z M267.1,14.6h5.2V30h-5.2V14.6z M281.5,18.6H277v-4h14.2v4h-4.5V30h-5.2V18.6z
	 M299.4,18.6h-4.5v-4h14.2v4h-4.5V30h-5.2V18.6z M313.7,14.6h5.2V26h7v4h-12.1V14.6z M343.4,26.1V30h-12.8V14.6h12.5v3.9h-7.4v1.8
	h6.5v3.7h-6.5v2H343.4z M365.2,26.1h-1.4V30h-5.2V14.6h7.4c1.4,0,2.7,0.2,3.7,0.7s1.9,1.1,2.4,2c0.6,0.9,0.9,1.9,0.9,3.1
	c0,1.1-0.2,2.1-0.7,2.9c-0.5,0.8-1.2,1.5-2.2,2l3.2,4.8h-5.5L365.2,26.1z M367.8,20.4c0-0.6-0.2-1-0.5-1.3c-0.4-0.3-0.9-0.5-1.6-0.5
	h-1.9v3.6h1.9c0.7,0,1.2-0.2,1.6-0.5C367.6,21.4,367.8,21,367.8,20.4z M386.4,30.4c-1.7,0-3.1-0.3-4.5-1c-1.3-0.7-2.4-1.6-3.1-2.9
	c-0.7-1.2-1.1-2.6-1.1-4.2c0-1.5,0.4-2.9,1.1-4.1c0.7-1.2,1.8-2.2,3.1-2.9c1.3-0.7,2.8-1,4.5-1c1.7,0,3.1,0.3,4.5,1
	c1.3,0.7,2.4,1.6,3.1,2.9c0.7,1.2,1.1,2.6,1.1,4.1c0,1.5-0.4,2.9-1.1,4.2c-0.7,1.2-1.8,2.2-3.1,2.9C389.5,30,388,30.4,386.4,30.4z
	 M386.4,26.1c0.6,0,1.2-0.2,1.7-0.5c0.5-0.3,0.9-0.8,1.3-1.3c0.3-0.6,0.5-1.3,0.5-2s-0.2-1.5-0.5-2c-0.3-0.6-0.7-1-1.3-1.3
	c-0.5-0.3-1.1-0.5-1.7-0.5c-0.6,0-1.2,0.2-1.8,0.5c-0.5,0.3-0.9,0.8-1.2,1.3c-0.3,0.6-0.5,1.2-0.5,2s0.2,1.5,0.5,2
	c0.3,0.6,0.7,1,1.2,1.3C385.1,26,385.7,26.1,386.4,26.1z M408.2,30.4c-1.6,0-3.1-0.3-4.4-1c-1.3-0.7-2.3-1.6-3.1-2.9
	c-0.7-1.2-1.1-2.6-1.1-4.2c0-1.6,0.4-2.9,1.1-4.2c0.7-1.2,1.8-2.2,3.1-2.9c1.3-0.7,2.8-1,4.4-1c1.5,0,2.8,0.3,4,0.8
	c1.2,0.5,2.1,1.3,2.9,2.3l-3.3,2.9c-1-1.2-2.1-1.8-3.4-1.8c-1.1,0-2,0.4-2.6,1.1c-0.7,0.7-1,1.6-1,2.8c0,1.2,0.3,2.1,1,2.8
	c0.7,0.7,1.5,1,2.6,1c1.3,0,2.4-0.6,3.4-1.8l3.3,2.9c-0.8,1-1.7,1.8-2.9,2.3C411,30.1,409.7,30.4,408.2,30.4z M426.2,24.9l-1.2,1.3
	V30h-5.1V14.6h5.1v5.6l5.1-5.6h5.7l-6.2,6.8L436,30h-6L426.2,24.9z"/>
<g>
	<path class="st0" d="M31.2,38.5c-1.6,0-2.8-0.5-3.7-1.4c-0.9-0.9-1.4-2.2-1.4-3.7l0-28.9c0.4,0,1.9,0,1.9,0s1.7,0,2.6,0
		c0.8,0,1.6,0.1,2.2,0.2c0.7,0.1,1.2,0.3,1.7,0.7c0.4,0.3,0.8,0.8,1,1.4C35.6,7.2,35.7,8,35.7,9v21.2h12.6c0.3,0.4,0.5,1,0.7,1.7
		c0.2,0.7,0.3,1.9,0.3,2.6c0,1.5-0.3,2.5-0.9,3.1c-0.6,0.6-1.4,0.9-2.5,0.9H31.2z"/>
	<path class="st0" d="M61.1,27.5v11.1c0,0-1.1,0-1.9,0c-0.9,0-1.7,0-2.5,0c-0.8,0-1.6-0.1-2.3-0.2c-0.6-0.1-1.2-0.3-1.6-0.7
		c-0.4-0.3-0.7-0.8-0.9-1.4c-0.2-0.6-0.3-1.4-0.3-2.3V8.1c0-0.8,0.2-1.4,0.6-1.8c0.4-0.4,1-0.8,1.8-1c1.2-0.4,2.7-0.8,4.3-0.9
		C59.9,4.1,61.6,4,63.5,4c5.1,0,8.9,1.1,11.4,3.2c2.6,2.1,3.9,5,3.9,8.6c0,2.3-0.6,4.2-1.8,5.8c-1.2,1.6-2.6,2.9-4.2,3.7
		c1.3,1.8,2.6,3.5,3.9,5.1c1.3,1.6,2.3,3,3,4.3c-0.4,1.3-1,2.3-2,3c-1,0.7-2,1-3.2,1c-0.8,0-1.5-0.1-2.1-0.3
		c-0.6-0.2-1.1-0.4-1.5-0.8c-0.4-0.3-0.8-0.7-1.2-1.2c-0.4-0.5-0.7-1-1-1.5L64,27.5H61.1z"/>
	<path class="st1" d="M64.1,9.2c0.1-0.4,0.6-0.4,0.8,0l1.2,3.7c0.1,0.2,0.2,0.3,0.4,0.3h3.9c0.4,0,0.5,0.5,0.2,0.7l-3.1,2.3
		c-0.1,0.1-0.2,0.3-0.1,0.4l1.2,3.7c0.1,0.4-0.3,0.7-0.6,0.4l-3.1-2.3c-0.1-0.1-0.3-0.1-0.5,0l-3.1,2.3c-0.3,0.2-0.7-0.1-0.6-0.4
		l1.2-3.7c0.1-0.2,0-0.3-0.1-0.4l-3.1-2.3c-0.3-0.2-0.2-0.7,0.2-0.7h3.9c0.2,0,0.3-0.1,0.4-0.3L64.1,9.2z"/>
	<path class="st2" d="M87.5,35.3l-1.4-0.7c-0.9-0.5-1.3-1.6-0.9-2.5l8.7-22c0.4-1.1,1.7-1.6,2.8-1l1,0.5L87.5,35.3z"/>
	<path class="st2" d="M108.9,22.8c-0.1-0.2-0.2-0.4-0.5-0.6l-7.7-7.1c-0.1,0.1-0.3,0.2-0.6,0.4c-0.3,0.2-0.5,0.4-0.7,0.6
		c-0.2,0.2-0.4,0.4-0.6,0.6c-0.2,0.2-0.3,0.4-0.3,0.6c0,0.2,0,0.4,0.1,0.6c0.1,0.2,0.2,0.4,0.4,0.6l5.4,4.9l-5.4,5.3
		c-0.2,0.2-0.4,0.4-0.4,0.6c-0.1,0.2-0.1,0.4-0.1,0.6c0,0.2,0.1,0.4,0.3,0.6c0.1,0.2,0.3,0.4,0.6,0.6c0.2,0.2,0.5,0.4,0.7,0.6
		c0.2,0.2,0.4,0.3,0.6,0.4l7.7-7.6c0.2-0.2,0.4-0.4,0.5-0.6c0.1-0.2,0.1-0.4,0-0.6C109,23.2,109,23,108.9,22.8z"/>
	<path class="st2" d="M17.2,28.9L11.8,24l5.4-5.3c0.2-0.2,0.4-0.4,0.4-0.6c0.1-0.2,0.1-0.4,0.1-0.6c0-0.2-0.1-0.4-0.3-0.6
		c-0.1-0.2-0.3-0.4-0.6-0.6c-0.2-0.2-0.5-0.4-0.7-0.6c-0.2-0.2-0.4-0.3-0.6-0.4l-7.7,7.6c-0.2,0.2-0.4,0.4-0.5,0.6
		c-0.1,0.2-0.1,0.4,0,0.6c0,0.2,0,0.4,0,0.5c0.1,0.2,0.2,0.4,0.5,0.6l7.7,7.1c0.1-0.1,0.3-0.2,0.6-0.4c0.3-0.2,0.5-0.4,0.7-0.6
		c0.2-0.2,0.4-0.4,0.6-0.6c0.2-0.2,0.3-0.4,0.3-0.6c0-0.2,0-0.4-0.1-0.6C17.5,29.3,17.4,29.1,17.2,28.9z"/>
</g>
<path d="M222.4,20.8l-0.1,0.7h1l-0.4,2.2h-1l-1.1,6.3h-3.2l1.1-6.3h-0.8l0.4-2.2h0.8l0.3-1c0.4-1.3,1.4-2,3.2-2c0.4,0,1,0.1,1.7,0.2
	l-0.6,2.2L222.4,20.8z M223.5,27.2c0-1.7,0.4-3.1,1.3-4.2c0.9-1.1,2.2-1.7,3.9-1.7c1.3,0,2.2,0.3,2.8,0.8c0.6,0.5,0.9,1.3,0.9,2.4
	s-0.2,2-0.5,2.9c-0.3,0.9-0.9,1.6-1.7,2.1c-0.8,0.6-1.8,0.8-3,0.8C224.7,30.3,223.5,29.2,223.5,27.2z M227.3,24.4l-0.6,3.3h0.5
	c0.4,0,0.7,0,0.9-0.1c0.2-0.1,0.3-0.3,0.4-0.6l0.6-3.3h-0.5c-0.4,0-0.7,0-0.9,0.1C227.5,23.9,227.4,24.1,227.3,24.4z M234.6,21.5
	h1.6l0.7,1c0.7-0.6,1.6-1,2.6-1.2l-0.4,3.2c-0.3,0-0.6,0.1-1.1,0.2c-0.4,0.1-0.8,0.3-0.9,0.5l-0.9,4.9h-3.2L234.6,21.5z"/>
</svg>
