<?xml version="1.0" encoding="utf-8"?>
<!-- Generator: Adobe Illustrator 24.1.3, SVG Export Plug-In . SVG Version: 6.00 Build 0)  -->
<svg version="1.1" id="Layer_1" xmlns="http://www.w3.org/2000/svg" xmlns:xlink="http://www.w3.org/1999/xlink" x="0px" y="0px"
	 viewBox="0 0 16 16" style="enable-background:new 0 0 16 16;" xml:space="preserve">
<path d="M15.5,3.7c-0.6,0.2-1.1,0.4-1.8,0.5c0.6-0.4,1.1-1,1.4-1.7c-0.6,0.4-1.3,0.6-2,0.7c-0.6-0.6-1.4-1-2.2-1c-2,0-3.4,1.8-3,3.8
	C5.3,5.9,3.1,4.7,1.5,2.8C0.7,4.2,1.1,6,2.5,6.9c-0.5,0-1-0.2-1.4-0.4c0,1.4,1,2.8,2.5,3C3.1,9.7,2.7,9.7,2.2,9.6
	c0.4,1.2,1.5,2.1,2.9,2.1c-1.3,1-2.9,1.5-4.6,1.3c1.4,0.9,3,1.4,4.7,1.4c5.7,0,8.9-4.8,8.7-9.1C14.6,4.8,15.1,4.3,15.5,3.7z"/>
</svg>
