<?xml version="1.0" encoding="utf-8"?>
<!-- Generator: Adobe Illustrator 24.1.3, SVG Export Plug-In . SVG Version: 6.00 Build 0)  -->
<svg version="1.1" id="Layer_1" xmlns="http://www.w3.org/2000/svg" xmlns:xlink="http://www.w3.org/1999/xlink" x="0px" y="0px"
	 viewBox="0 0 16 16" style="enable-background:new 0 0 16 16;" xml:space="preserve">
<path d="M8,0.7c-4.4,0-8,3.5-8,7.8c0,3.4,2.3,6.4,5.5,7.4C5.9,16,6,15.7,6,15.5v-1.4c-2.2,0.5-2.7-0.9-2.7-0.9
	C2.9,12.3,2.4,12,2.4,12c-0.7-0.5,0.1-0.5,0.1-0.5c0.8,0.1,1.2,0.8,1.2,0.8C4.4,13.5,5.6,13.2,6,13c0.1-0.5,0.3-0.8,0.5-1
	c-1.8-0.2-3.6-0.9-3.6-3.8c0-0.9,0.3-1.5,0.8-2.1C3.6,5.8,3.4,5,3.8,3.9c0,0,0.7-0.2,2.2,0.8c0.6-0.2,1.3-0.3,2-0.3
	c0.7,0,1.4,0.1,2,0.3c1.5-1,2.2-0.8,2.2-0.8C12.6,5,12.4,5.8,12.3,6c0.5,0.5,0.8,1.2,0.8,2.1c0,3-1.9,3.7-3.7,3.8
	c0.3,0.2,0.5,0.7,0.5,1.4v2.1c0,0.2,0.1,0.5,0.5,0.4c3.2-1,5.5-3.9,5.5-7.4C16,4.2,12.4,0.7,8,0.7z"/>
</svg>
