<svg width="222" height="62" viewBox="0 0 222 62" fill="none" xmlns="http://www.w3.org/2000/svg">
<g clip-path="url(#clip0)">
<path d="M7.59249 39.3586C7.13718 39.0271 6.4697 38.5145 5.59005 37.8206C4.71519 37.1935 3.88439 36.4866 3.09764 35.6998C2.31089 34.9131 1.64211 34.1514 1.09131 33.4148C0.576268 32.7139 0.243531 32.0096 0.0930988 31.3018C-0.0573335 30.5939 -0.0254604 29.8826 0.188717 29.1677C0.469623 28.4577 0.997164 27.7156 1.77134 26.9414L28.7128 0C29.1681 0.33144 29.8177 0.826204 30.6616 1.48429C31.5722 2.14717 32.4209 2.87199 33.2076 3.65874C33.9944 4.44549 34.6453 5.18929 35.1603 5.89013C35.7111 6.62674 36.0617 7.34896 36.2122 8.0568C36.3626 8.76464 36.2974 9.47359 36.0164 10.1836C35.8023 10.8985 35.3081 11.643 34.5339 12.4172L7.59249 39.3586Z" fill="#C0032C"/>
<path d="M7.59512 21.8527C7.13942 22.1838 6.47145 22.6959 5.59122 23.3892C4.71558 24.0155 3.88438 24.7221 3.09763 25.5088C2.31088 26.2956 1.6424 27.0575 1.09218 27.7947C0.577721 28.4962 0.246156 29.2017 0.0974808 29.9113C-0.051194 30.6209 -0.0169775 31.3346 0.200129 32.0523C0.484159 32.7655 1.01571 33.5116 1.79477 34.2907L28.9061 61.402C29.3618 61.0709 30.0119 60.5766 30.8563 59.9191C31.7677 59.257 32.6168 58.5326 33.4036 57.7459C34.1903 56.9591 34.8409 56.215 35.3554 55.5136C35.9056 54.7764 36.255 54.053 36.4037 53.3434C36.5524 52.6338 36.4847 51.9224 36.2007 51.2093C35.9836 50.4915 35.4855 49.7431 34.7064 48.964L7.59512 21.8527Z" fill="#C0032C"/>
<path d="M213.909 39.3586C214.364 39.0271 215.031 38.5145 215.911 37.8206C216.786 37.1935 217.617 36.4866 218.404 35.6998C219.19 34.9131 219.859 34.1514 220.41 33.4148C220.925 32.7139 221.258 32.0096 221.408 31.3018C221.559 30.5939 221.527 29.8826 221.312 29.1677C221.032 28.4577 220.504 27.7156 219.73 26.9414L192.788 0C192.333 0.33144 191.684 0.826204 190.84 1.48429C189.929 2.14717 189.08 2.87199 188.294 3.65874C187.507 4.44549 186.856 5.18929 186.341 5.89013C185.79 6.62674 185.439 7.34896 185.289 8.0568C185.139 8.76464 185.204 9.47359 185.485 10.1836C185.699 10.8985 186.193 11.643 186.967 12.4172L213.909 39.3586Z" fill="#C0032C"/>
<path d="M213.906 21.8527C214.362 22.1838 215.03 22.6959 215.91 23.3892C216.786 24.0155 217.617 24.7221 218.404 25.5088C219.19 26.2956 219.859 27.0575 220.409 27.7947C220.923 28.4962 221.255 29.2017 221.404 29.9113C221.552 30.6209 221.518 31.3346 221.301 32.0523C221.017 32.7655 220.485 33.5116 219.706 34.2907L192.595 61.402C192.139 61.0709 191.489 60.5766 190.645 59.9191C189.733 59.257 188.884 58.5326 188.098 57.7459C187.311 56.9591 186.66 56.215 186.146 55.5136C185.596 54.7764 185.246 54.053 185.097 53.3434C184.949 52.6338 185.016 51.9224 185.301 51.2093C185.518 50.4915 186.016 49.7431 186.795 48.964L213.906 21.8527Z" fill="#C0032C"/>
<path d="M56.2234 60.8699C53.4714 60.8699 51.2954 60.0699 49.6954 58.4699C48.0954 56.8699 47.2954 54.6939 47.2954 51.9419V2.30992C47.9994 2.18192 49.1194 2.02192 50.6554 1.82992C52.1914 1.57392 53.6634 1.44592 55.0714 1.44592C56.5434 1.44592 57.8234 1.57392 58.9114 1.82992C60.0634 2.02192 61.0234 2.40592 61.7914 2.98192C62.5594 3.55792 63.1354 4.35792 63.5194 5.38192C63.9034 6.40592 64.0954 7.74992 64.0954 9.41392V47.3339H86.0794C86.5274 48.0379 86.9434 48.9979 87.3274 50.2139C87.7114 51.3659 87.9034 52.5819 87.9034 53.8619C87.9034 56.4219 87.3594 58.2459 86.2714 59.3339C85.1834 60.3579 83.7434 60.8699 81.9514 60.8699H56.2234Z" fill="#002368"/>
<path d="M110.204 41.992V60.424C109.5 60.616 108.38 60.808 106.844 61C105.372 61.192 103.9 61.288 102.428 61.288C100.956 61.288 99.644 61.16 98.492 60.904C97.404 60.712 96.476 60.328 95.708 59.752C95.004 59.176 94.46 58.376 94.076 57.352C93.692 56.328 93.5 54.984 93.5 53.32V8.104C93.5 6.76 93.852 5.736 94.556 5.032C95.324 4.264 96.348 3.656 97.628 3.208C99.804 2.44 102.332 1.896 105.212 1.576C108.092 1.192 111.164 1 114.428 1C123.26 1 129.916 2.856 134.396 6.568C138.876 10.28 141.116 15.304 141.116 21.64C141.116 25.608 140.092 29 138.044 31.816C135.996 34.632 133.564 36.808 130.748 38.344C133.052 41.48 135.324 44.424 137.564 47.176C139.804 49.928 141.564 52.424 142.844 54.664C142.204 56.904 141.02 58.632 139.292 59.848C137.628 61 135.74 61.576 133.628 61.576C132.22 61.576 131.004 61.416 129.98 61.096C128.956 60.776 128.06 60.328 127.292 59.752C126.524 59.176 125.82 58.472 125.18 57.64C124.54 56.808 123.932 55.912 123.356 54.952L115.292 41.992H110.204Z" fill="#002368"/>
<path d="M116.57 6.57043L119.285 15.3557H128.07L120.963 20.7852L123.678 29.5704L116.57 24.1409L109.463 29.5704L112.178 20.7852L105.07 15.3557H113.856L116.57 6.57043Z" fill="white"/>
<path d="M155.101 61L151 59.5637L177.899 0L182 1.53259L155.101 61Z" fill="#46C5DD"/>
</g>
<defs>
<clipPath id="clip0">
<rect width="222" height="62" fill="white"/>
</clipPath>
</defs>
</svg>
