<?xml version="1.0" encoding="utf-8"?>
<!-- Generator: Adobe Illustrator 24.1.3, SVG Export Plug-In . SVG Version: 6.00 Build 0)  -->
<svg version="1.1" id="Layer_1" xmlns="http://www.w3.org/2000/svg" xmlns:xlink="http://www.w3.org/1999/xlink" x="0px" y="0px"
	 viewBox="0 0 70 70" style="enable-background:new 0 0 70 70;" xml:space="preserve">
<g>
	<path d="M51.2,20.9c-0.6-0.7-0.6-1.8,0.2-2.5l5.9-5.2c0.7-0.6,1.8-0.6,2.5,0.1c0.6,0.7,0.6,1.8-0.2,2.5L53.6,21
		C52.9,21.7,51.8,21.6,51.2,20.9z"/>
	<path d="M63.4,36.4l-7.7-1.5c-1-0.2-1.6-1.1-1.4-2.1c0.2-0.9,1.1-1.6,2.1-1.4l7.7,1.5c1,0.2,1.6,1.1,1.4,2.1
		C65.3,36,64.4,36.6,63.4,36.4z"/>
	<path d="M61.5,26.3l-6.8,1.8c-0.9,0.3-1.9-0.3-2.2-1.2c-0.2-0.9,0.3-1.9,1.3-2.1l6.8-1.8c0.9-0.3,1.9,0.3,2.2,1.2
		C63,25.1,62.5,26.1,61.5,26.3z"/>
	<path d="M42.1,8.1c-0.9,0.3-1.5,1.2-1.3,2.1l0.6,2.4c-5.1,5.5-11.7,10-18.7,12.8l4.7,17.7c7.5-1.1,15.4-0.5,22.6,1.8l0.6,2.4
		c0.2,0.9,1.2,1.5,2.2,1.2c0.9-0.3,1.5-1.2,1.3-2.1L44.2,9.3C44,8.4,43,7.8,42.1,8.1z"/>
	<path d="M26.7,55.8c-2.3-2.4-4.5-5.3-4.3-8.5l-8.7,1.3c-0.7,0.1-1.3,0.1-1.9,0.1c-0.3,3.9,0.8,7.4,1.6,10c0.2,0.7,0.4,1.3,0.6,1.9
		c0.2,0.9,1.2,1.5,2.2,1.2l10.2-2.7c0.6-0.2,1.1-0.6,1.2-1.2c0.2-0.6,0-1.2-0.4-1.7L26.7,55.8z"/>
	<path d="M4.7,39.7c1,3.7,4.7,6.1,8.5,5.5L24,43.6l-4.5-16.9L9.3,30.7C5.7,32.1,3.7,36,4.7,39.7z"/>
</g>
</svg>
