<svg width="111" height="111" viewBox="0 0 111 111" fill="none" xmlns="http://www.w3.org/2000/svg">
<path d="M111 55.5C111 86.1518 86.1518 111 55.5 111C24.8482 111 0 86.1518 0 55.5C0 24.8482 24.8482 0 55.5 0C86.1518 0 111 24.8482 111 55.5Z" fill="#46C5DD"/>
<path d="M72.8702 36.918C72.2267 36.1983 72.2963 35.0952 73.0257 34.4536L78.9303 29.2602C79.6602 28.6204 80.7723 28.6821 81.4158 29.4019C82.0593 30.1216 81.9897 31.2247 81.2603 31.8663L75.3557 37.0597C74.6182 37.705 73.51 37.632 72.8702 36.918Z" fill="white"/>
<path d="M85.1547 52.4902L77.4445 50.9449C76.492 50.754 75.8802 49.8335 76.0776 48.8884C76.2787 47.9441 77.2081 47.3371 78.1592 47.523L85.8695 49.0683C86.8219 49.2592 87.4337 50.1797 87.2363 51.1248C87.0391 52.0639 86.1151 52.68 85.1547 52.4902Z" fill="white"/>
<path d="M83.2551 42.3561L76.4477 44.1802C75.507 44.4322 74.5439 43.8827 74.2944 42.9515C74.0449 42.0203 74.6042 41.0629 75.5449 40.8108L82.3523 38.9868C83.293 38.7347 84.2561 39.2843 84.5056 40.2154C84.7551 41.1466 84.1958 42.1041 83.2551 42.3561Z" fill="white"/>
<path d="M63.7734 24.104C62.8327 24.356 62.2734 25.3135 62.5229 26.2446L63.1675 28.6501C58.0596 34.1978 51.488 38.6605 44.4711 41.471L49.2073 59.1468C56.6894 58.0724 64.6119 58.6513 71.8093 60.9018L72.4538 63.3072C72.7033 64.2384 73.6664 64.7879 74.6071 64.5358C75.5477 64.2838 76.107 63.3263 75.8575 62.3952L65.9266 25.3326C65.6771 24.4014 64.714 23.8519 63.7734 24.104Z" fill="white"/>
<path d="M48.4097 71.8797C46.0945 69.5073 43.862 66.5903 44.1314 63.4249L35.4787 64.7506C34.8281 64.8507 34.1835 64.8788 33.546 64.8673C33.2559 68.789 34.3147 72.2874 35.1303 74.8983C35.3381 75.5673 35.534 76.192 35.6887 76.7695C35.9382 77.7006 36.9013 78.2502 37.842 77.9981L48.0531 75.2621C48.643 75.104 49.1104 74.6543 49.2864 74.0746C49.4641 73.4945 49.3261 72.8668 48.9221 72.416L48.4097 71.8797Z" fill="white"/>
<path d="M26.4168 55.7811C27.4192 59.5223 31.0906 61.8958 34.9572 61.3023L45.6954 59.6556L41.1753 42.7863L31.0524 46.7293C27.407 48.1487 25.4143 52.0399 26.4168 55.7811Z" fill="white"/>
</svg>
