<?xml version="1.0" encoding="utf-8"?>
<!-- Generator: Adobe Illustrator 24.1.3, SVG Export Plug-In . SVG Version: 6.00 Build 0)  -->
<svg version="1.1" id="Layer_1" xmlns="http://www.w3.org/2000/svg" xmlns:xlink="http://www.w3.org/1999/xlink" x="0px" y="0px"
	 viewBox="0 0 70 70" style="enable-background:new 0 0 70 70;" xml:space="preserve">
<g>
	<path d="M52.9,33.2c-4.9,0-8.9,4-8.9,8.9c0,4.9,4,8.9,8.9,8.9s8.9-4,8.9-8.9C61.8,37.2,57.8,33.2,52.9,33.2z"/>
	<path d="M61.6,51.1c-2.3,2.2-5.3,3.6-8.7,3.6c-3.4,0-6.5-1.4-8.7-3.6c-2.3,2.3-3.8,5.4-3.8,8.9v3.7c0,1,0.8,1.8,1.8,1.8h21.6
		c1,0,1.8-0.8,1.8-1.8V60C65.5,56.5,63.9,53.4,61.6,51.1z"/>
	<path d="M17.1,4.5c-4.9,0-8.9,4.1-8.9,9.1c0,4.9,4,8.9,8.9,8.9c4.9,0,8.9-4,8.9-8.9C26.1,8.6,22.1,4.5,17.1,4.5z"/>
	<path d="M25.9,22.5c-2.3,2.2-5.3,3.6-8.7,3.6c-3.4,0-6.5-1.4-8.7-3.6c-2.3,2.3-3.9,5.4-3.9,8.9V35c0,1,0.8,1.8,1.8,1.8h21.6
		c1,0,1.8-0.8,1.8-1.8v-3.6C29.6,27.9,28.2,24.8,25.9,22.5z"/>
	<path d="M35,11.8c-1.9,0-3.7,0.3-5.5,0.7c0,0.4,0.1,0.7,0.1,1.1c0,0.9-0.1,1.8-0.3,2.6c1.8-0.5,3.7-0.8,5.6-0.8
		c9,0,16.6,6.1,18.9,14.4c1.4,0.1,2.7,0.4,3.9,0.9C55.8,19.9,46.3,11.8,35,11.8z"/>
	<path d="M35,54.7c-9,0-16.6-6.1-18.9-14.3h-3.7C14.8,50.6,24,58.2,35,58.2c0.7,0,1.3,0,2-0.1c0.2-1.3,0.4-2.5,0.9-3.7
		C36.9,54.6,36,54.7,35,54.7z"/>
</g>
</svg>
