<?xml version="1.0" encoding="utf-8"?>
<!-- Generator: Adobe Illustrator 24.1.3, SVG Export Plug-In . SVG Version: 6.00 Build 0)  -->
<svg version="1.1" id="Layer_1" xmlns="http://www.w3.org/2000/svg" xmlns:xlink="http://www.w3.org/1999/xlink" x="0px" y="0px"
	 viewBox="0 0 161 161" style="enable-background:new 0 0 161 161;" xml:space="preserve">
<style type="text/css">
	.st0{fill:#FFFFFF;}
	.st1{fill:#E84D60;}
</style>
<g>
	<path class="st0" d="M161,0H0v161h29.6c-1.7-5.2-2.6-10.7-2.6-16.5C27,114.4,51.4,90,81.5,90c30.1,0,54.5,24.4,54.5,54.5
		c0,5.8-0.9,11.3-2.6,16.5H161V0z M81,83c-19.3,0-35-15.5-35-34.5S61.7,14,81,14s35,15.5,35,34.5S100.3,83,81,83z"/>
	<path class="st0" d="M118,144.5c0-20.1-16.4-36.5-36.5-36.5S45,124.4,45,144.5c0,5.9,1.4,11.5,4,16.5H114
		C116.6,156,118,150.4,118,144.5z"/>
	<ellipse class="st0" cx="81" cy="48.5" rx="17" ry="16.5"/>
	<path class="st1" d="M81.5,90C51.4,90,27,114.4,27,144.5c0,5.8,0.9,11.3,2.6,16.5H49c-2.5-5-4-10.6-4-16.5
		c0-20.1,16.4-36.5,36.5-36.5s36.5,16.4,36.5,36.5c0,5.9-1.4,11.5-4,16.5h19.4c1.7-5.2,2.6-10.7,2.6-16.5
		C136,114.4,111.6,90,81.5,90z"/>
	<path class="st1" d="M81,14c-19.3,0-35,15.5-35,34.5S61.7,83,81,83s35-15.5,35-34.5S100.3,14,81,14z M81,65c-9.4,0-17-7.4-17-16.5
		S71.6,32,81,32s17,7.4,17,16.5S90.4,65,81,65z"/>
</g>
</svg>
